<?xml version="1.0" encoding="utf-8"?>
<svg id="SVGDoc" width="86px" height="40" version="1.1" viewBox="0 0 55.8 40" xmlns="http://www.w3.org/2000/svg">
  <desc>Generated with Avocode.</desc>
  <g>
    <g>
      <title>logo geopark</title>
      <g>
        <title>Fill 1</title>
        <path d="M0,0v0v17.09282v0h8.85161v0v-5.18601v0h7.78281v0v-4.1716v0h8.2812v0v-7.73521v0z" fill="#b11e2a" fill-opacity="1"/>
      </g>
      <g>
        <title>Fill 2</title>
        <path d="M30.81,0v0v7.83521v0h8.33001v0v4.16479v0h7.77882v0v5.07002v0h8.80679v0v-17.07002v0z" fill="#b11e2a" fill-opacity="1"/>
      </g>
      <g>
        <title>Fill 3</title>
        <path d="M46.86002,23.08v0v5.15441v0h-7.78162v0v4.126v0h-8.15841v0v7.63959v0h24.72962v0v-16.92v0z" fill="#363a3f" fill-opacity="1"/>
      </g>
      <g>
        <title>Fill 4</title>
        <path d="M0.06,23.09v0v16.85762v0h24.74882v0v-7.61161v0h-8.2552v0v-4.1828v0h-7.77241v0v-5.06321v0z" fill="#363a3f" fill-opacity="1"/>
      </g>
      <g>
        <title>Fill 5</title>
        <path d="M24.13721,12.3v0v5.7v0h-7.35721v0v4.25681v0h7.43321v0v5.58681v0h7.312v0v-5.62601v0h7.40401v0v-4.3004v0h-7.46161v0v-5.61721v0z" fill="#363a3f" fill-opacity="1"/>
      </g>
    </g>
  </g>
</svg>